<?xml version="1.0" encoding="UTF-8" standalone="no"?>
<!-- Created with Inkscape (http://www.inkscape.org/) -->

<svg
   xmlns:dc="http://purl.org/dc/elements/1.1/"
   xmlns:cc="http://creativecommons.org/ns#"
   xmlns:rdf="http://www.w3.org/1999/02/22-rdf-syntax-ns#"
   xmlns:svg="http://www.w3.org/2000/svg"
   xmlns="http://www.w3.org/2000/svg"
   xmlns:sodipodi="http://sodipodi.sourceforge.net/DTD/sodipodi-0.dtd"
   xmlns:inkscape="http://www.inkscape.org/namespaces/inkscape"
   id="svg3647"
   version="1.1"
   inkscape:version="0.91 r13725"
   width="50"
   height="50"
   viewBox="0 0 50 50"
   sodipodi:docname="Citycons_magnify-50_white.svg">
  <metadata
     id="metadata3653">
    <rdf:RDF>
      <cc:Work
         rdf:about="">
        <dc:format>image/svg+xml</dc:format>
        <dc:type
           rdf:resource="http://purl.org/dc/dcmitype/StillImage" />
        <dc:title></dc:title>
      </cc:Work>
    </rdf:RDF>
  </metadata>
  <defs
     id="defs3651" />
  <sodipodi:namedview
     pagecolor="#ffffff"
     bordercolor="#666666"
     borderopacity="1"
     objecttolerance="10"
     gridtolerance="10"
     guidetolerance="10"
     inkscape:pageopacity="0"
     inkscape:pageshadow="2"
     inkscape:window-width="1301"
     inkscape:window-height="744"
     id="namedview3649"
     showgrid="false"
     inkscape:zoom="6.0634406"
     inkscape:cx="34.936441"
     inkscape:cy="22.053898"
     inkscape:window-x="65"
     inkscape:window-y="24"
     inkscape:window-maximized="1"
     inkscape:current-layer="svg3647" />
  <rect
     style="fill:#000000"
     id="rect3705"
     width="22.035719"
     height="35.342728"
     x="17.981447"
     y="8.6634541" />
  <path
     style="fill:#ffffff"
     d="m -0.0234414,25.072677 c 0,19.388544 0,9.694273 0,0 z M 32.236784,49.381563 c 4.151279,-1.058282 7.537411,-3.16629 10.864247,-6.763426 4.602438,-4.976378 6.875527,-10.777006 6.875527,-17.54546 0,-6.512264 -2.16123,-12.225977 -6.509823,-17.2102535 C 34.449528,-2.4729192 19.531613,-2.5313984 10.367088,7.73268 c -9.0523378,10.13843 -8.7919599,25.711431 0.58989,35.280873 5.941261,6.060059 13.552863,8.337836 21.279806,6.36801 z M 19.813417,41.340878 c -0.277379,-0.299917 -0.504326,-0.892152 -0.504326,-1.316075 0,-1.14741 4.164578,-10.575935 4.856252,-10.994466 0.32834,-0.198675 0.798638,-0.768646 1.04511,-1.266595 0.376522,-0.760702 0.181973,-1.2323 -1.217555,-2.951428 -3.980402,-4.88938 -2.770576,-11.84976 2.571911,-14.796741 2.525863,-1.3932961 6.387533,-1.05729 8.778792,0.763847 4.958815,3.776539 4.945286,11.640827 -0.02653,15.429306 -1.541381,1.174513 -2.201718,1.374344 -4.76949,1.443339 -2.610793,0.07016 -3.042502,0.205525 -3.481067,1.091572 -0.275361,0.556317 -0.419704,1.346197 -0.320762,1.755286 0.09894,0.409092 -0.860795,3.138578 -2.132745,6.065531 -1.991109,4.581823 -2.450473,5.321725 -3.303955,5.321725 -0.545221,0 -1.218258,-0.245385 -1.495637,-0.545301 z M 33.807062,24.662267 c 4.1882,-2.576575 4.260719,-9.58438 0.127309,-12.302292 -1.901549,-1.250357 -3.361668,-1.507298 -5.322045,-0.936534 -3.289177,0.957645 -5.543064,4.821423 -4.917093,8.429242 0.175037,1.008833 0.916093,2.407177 1.848407,3.487875 2.309861,2.677486 5.285876,3.15349 8.263422,1.321709 z m -0.434521,-2.343531 c -0.151481,-0.265014 -0.04689,-1.078383 0.232415,-1.807479 0.291301,-0.760405 0.395811,-2.056571 0.245106,-3.039903 -0.498153,-3.25038 -0.478996,-3.499824 0.281565,-3.666337 0.881587,-0.19301 1.988363,2.284743 1.988363,4.451375 0,2.949716 -1.833682,5.660975 -2.747449,4.062344 z"
     id="path3703"
     inkscape:connector-curvature="0"
     sodipodi:nodetypes="ccsssssssssssssssssssssssssssssssss" />
</svg>
