<?xml version="1.0" ?><svg id="Layer_1" style="enable-background:new 0 0 512 512;" version="1.1" viewBox="0 0 512 512" xml:space="preserve" xmlns="http://www.w3.org/2000/svg" xmlns:xlink="http://www.w3.org/1999/xlink"><style type="text/css">
	.st0{fill:#010101;}
</style><path class="st0" d="M256,85.3c-94.3,0-170.7,76.4-170.7,170.7S161.7,426.7,256,426.7c94.3,0,170.7-76.4,170.7-170.7  S350.3,85.3,256,85.3z M305.2,177.3c-6.9-1.6-13.4-2.5-19.8-2.5c-6.2,0-10.7,1.5-13.4,4.4c-2.7,2.9-4.1,8.5-4.1,16.8v11.5h32.2v33.9  h-32.2v128.9h-43.1V241.4H201v-33.9h23.9v-12.2c0-13.7,1.5-23.9,4.4-30.6c2.9-6.7,8.3-12.2,16.1-16.5c7.8-4.2,17.7-6.4,29.6-6.4  c12.3,0,24.3,1.8,36,5.5L305.2,177.3z" id="XMLID_42_"/></svg>