<?xml version="1.0" encoding="UTF-8" standalone="no"?>
<svg
   xmlns:dc="http://purl.org/dc/elements/1.1/"
   xmlns:cc="http://creativecommons.org/ns#"
   xmlns:rdf="http://www.w3.org/1999/02/22-rdf-syntax-ns#"
   xmlns:svg="http://www.w3.org/2000/svg"
   xmlns="http://www.w3.org/2000/svg"
   xmlns:sodipodi="http://sodipodi.sourceforge.net/DTD/sodipodi-0.dtd"
   xmlns:inkscape="http://www.inkscape.org/namespaces/inkscape"
   id="Layer_1"
   style="enable-background:new 0 0 512 512;"
   version="1.1"
   viewBox="0 0 512 512"
   xml:space="preserve"
   inkscape:version="0.91 r13725"
   sodipodi:docname="facebook.svg"><metadata
     id="metadata10"><rdf:RDF><cc:Work
         rdf:about=""><dc:format>image/svg+xml</dc:format><dc:type
           rdf:resource="http://purl.org/dc/dcmitype/StillImage" /></cc:Work></rdf:RDF></metadata><defs
     id="defs8" /><sodipodi:namedview
     pagecolor="#ffffff"
     bordercolor="#666666"
     borderopacity="1"
     objecttolerance="10"
     gridtolerance="10"
     guidetolerance="10"
     inkscape:pageopacity="0"
     inkscape:pageshadow="2"
     inkscape:window-width="640"
     inkscape:window-height="480"
     id="namedview6"
     showgrid="false"
     inkscape:zoom="0.4609375"
     inkscape:cx="256"
     inkscape:cy="256"
     inkscape:window-x="75"
     inkscape:window-y="34"
     inkscape:window-maximized="0"
     inkscape:current-layer="Layer_1" /><style
     type="text/css"
     id="style3">
	.st0{fill:#010101;}
</style><path
     class="st0"
     d="M 256,2.859322 C 116.1572,2.859322 2.859322,116.1572 2.859322,256 2.859322,395.8428 116.1572,509.14068 256,509.14068 395.8428,509.14068 509.14068,395.8428 509.14068,256 509.14068,116.1572 395.8428,2.859322 256,2.859322 Z m 72.96146,136.431998 c -10.2324,-2.37272 -19.87162,-3.70739 -29.36254,-3.70739 -9.19433,0 -15.86764,2.22443 -19.87162,6.52501 -4.00398,4.30058 -6.08012,12.60513 -6.08012,24.91367 l 0,17.054 47.7512,0 0,50.27223 -47.7512,0 0,191.15309 -63.91542,0 0,-191.15309 -35.29437,0 0,-50.27223 35.44267,0 0,-18.09207 c 0,-20.3165 2.22442,-35.44266 6.525,-45.37847 4.30058,-9.93581 12.30854,-18.09207 23.8756,-24.468782 11.56706,-6.228418 26.24833,-9.490922 43.89552,-9.490922 18.24036,0 36.03584,2.669322 53.38642,8.15626 l -8.60114,44.488694 z"
     id="XMLID_42_"
     inkscape:connector-curvature="0"
     style="fill:#ffffff" /></svg>