<?xml version="1.0" encoding="UTF-8" standalone="no"?>
<svg
   xmlns:dc="http://purl.org/dc/elements/1.1/"
   xmlns:cc="http://creativecommons.org/ns#"
   xmlns:rdf="http://www.w3.org/1999/02/22-rdf-syntax-ns#"
   xmlns:svg="http://www.w3.org/2000/svg"
   xmlns="http://www.w3.org/2000/svg"
   xmlns:sodipodi="http://sodipodi.sourceforge.net/DTD/sodipodi-0.dtd"
   xmlns:inkscape="http://www.inkscape.org/namespaces/inkscape"
   id="Layer_1"
   style="enable-background:new 0 0 512 512;"
   version="1.1"
   viewBox="0 0 512 512"
   xml:space="preserve"
   inkscape:version="0.91 r13725"
   sodipodi:docname="linkedin.svg"><metadata
     id="metadata10"><rdf:RDF><cc:Work
         rdf:about=""><dc:format>image/svg+xml</dc:format><dc:type
           rdf:resource="http://purl.org/dc/dcmitype/StillImage" /></cc:Work></rdf:RDF></metadata><defs
     id="defs8" /><sodipodi:namedview
     pagecolor="#ffffff"
     bordercolor="#666666"
     borderopacity="1"
     objecttolerance="10"
     gridtolerance="10"
     guidetolerance="10"
     inkscape:pageopacity="0"
     inkscape:pageshadow="2"
     inkscape:window-width="640"
     inkscape:window-height="480"
     id="namedview6"
     showgrid="false"
     inkscape:zoom="0.4609375"
     inkscape:cx="256"
     inkscape:cy="256"
     inkscape:window-x="75"
     inkscape:window-y="34"
     inkscape:window-maximized="0"
     inkscape:current-layer="Layer_1" /><style
     type="text/css"
     id="style3">
	.st0{fill:#010101;}
</style><path
     class="st0"
     d="M 256,0.78983051 C 116.1572,0.78983051 2.859322,114.58416 2.859322,254.89078 c 0,140.45556 113.297878,254.2499 253.140678,254.2499 139.8428,0 253.14068,-113.79434 253.14068,-254.2499 C 509.14068,114.43521 395.6945,0.78983051 256,0.78983051 Z M 186.15274,360.49311 l -40.33641,0 0,-152.96699 40.33641,0 0,152.96699 z m 0,-173.81934 -40.33641,0 0,-37.38531 40.33641,0 0,37.38531 z m 180.03092,173.81934 -40.3364,0 0,-78.04742 c 0,-16.53295 -0.88978,-27.10807 -2.66933,-32.02328 -1.77955,-4.9152 -4.44887,-8.63883 -8.45285,-11.31985 -3.85569,-2.68102 -8.60115,-4.02152 -13.9398,-4.02152 -6.96989,0 -13.1983,1.93628 -18.83354,5.80887 -5.48694,3.72363 -9.34262,8.93672 -11.41876,15.19243 -2.07614,6.25572 -3.11422,18.17135 -3.11422,35.15114 l 0,69.25963 -40.33642,0 0,-152.96699 37.37052,0 0,22.49077 c 13.3466,-17.27768 30.104,-25.91651 50.27222,-25.91651 8.89774,0 17.054,1.6384 24.46878,4.9152 7.41478,3.2768 12.90172,7.29833 16.7574,12.36247 3.8557,4.9152 6.37672,10.57513 7.85968,16.97979 1.48296,6.2557 2.22444,15.34138 2.22444,27.25701 l 0,94.87826 z"
     id="XMLID_1081_"
     inkscape:connector-curvature="0"
     style="fill:#ffffff" /></svg>