<?xml version="1.0" ?><svg id="Layer_1" style="enable-background:new 0 0 512 512;" version="1.1" viewBox="0 0 512 512" xml:space="preserve" xmlns="http://www.w3.org/2000/svg" xmlns:xlink="http://www.w3.org/1999/xlink"><style type="text/css">
	.st0{fill:#010101;}
</style><path class="st0" d="M256,85.4c-94.3,0-170.7,76.4-170.7,170.6c0,94.3,76.4,170.7,170.7,170.7  c94.3,0,170.7-76.4,170.7-170.7C426.7,161.7,350.2,85.4,256,85.4z M208.9,326.9h-27.2V224.2h27.2V326.9z M208.9,210.2h-27.2v-25.1  h27.2V210.2z M330.3,326.9h-27.2v-52.4c0-11.1-0.6-18.2-1.8-21.5c-1.2-3.3-3-5.8-5.7-7.6c-2.6-1.8-5.8-2.7-9.4-2.7  c-4.7,0-8.9,1.3-12.7,3.9c-3.7,2.5-6.3,6-7.7,10.2c-1.4,4.2-2.1,12.2-2.1,23.6v46.5h-27.2V224.2h25.2v15.1  c9-11.6,20.3-17.4,33.9-17.4c6,0,11.5,1.1,16.5,3.3c5,2.2,8.7,4.9,11.3,8.3c2.6,3.3,4.3,7.1,5.3,11.4c1,4.2,1.5,10.3,1.5,18.3V326.9  z" id="XMLID_1081_"/></svg>